<?xml version="1.0" encoding="UTF-8"?>
<svg width="80px" height="80px" viewBox="0 0 80 80" version="1.1" xmlns="http://www.w3.org/2000/svg" xmlns:xlink="http://www.w3.org/1999/xlink">
    <title>assets/img/icon-missing</title>
    <g id="assets/img/icon-missing" stroke="none" stroke-width="1" fill="none" fill-rule="evenodd">
        <g id="Group" fill="#FFFFFF" fill-rule="nonzero">
            <g id="?">
                <path d="M39.7354497,50.7142857 L39.7354497,49.6230159 C39.7354497,47.5286596 40.0936949,45.8531746 40.8101852,44.5965608 C41.5266755,43.3399471 42.9982363,41.7636684 45.2248677,39.8677249 C48.0026455,37.4426808 49.8104056,35.6845238 50.6481481,34.593254 C51.4858907,33.5019841 52.119709,32.3445767 52.5496032,31.1210317 C52.9794974,29.8974868 53.1944444,28.4810406 53.1944444,26.8716931 C53.1944444,23.1018519 52.0260141,20.180776 49.6891534,18.1084656 C47.3522928,16.0361552 44.0784832,15 39.8677249,15 C35.3262787,15 30.9722222,16.0912698 26.8055556,18.2738095 L26.8055556,18.2738095 L28.7566138,22.7380952 C30.8950617,21.6578483 32.7910053,20.9138007 34.4444444,20.5059524 C36.0978836,20.0981041 37.7954145,19.8941799 39.537037,19.8941799 C42.2486772,19.8941799 44.3264991,20.5059524 45.7705026,21.7294974 C47.2145062,22.9530423 47.9365079,24.6891534 47.9365079,26.9378307 C47.9365079,28.7455908 47.545194,30.2888007 46.7625661,31.5674603 C45.9799383,32.8461199 44.0895062,34.7530864 41.0912698,37.2883598 C38.930776,39.1402116 37.4537037,40.8983686 36.6600529,42.5628307 C35.8664021,44.2272928 35.4695767,46.3492063 35.4695767,48.9285714 L35.4695767,48.9285714 L35.4695767,50.7142857 L39.7354497,50.7142857 Z M37.8174603,65 C39.0740741,65 40.0551146,64.6086861 40.760582,63.8260582 C41.4660494,63.0434303 41.8187831,61.946649 41.8187831,60.5357143 C41.8187831,59.0806878 41.4715608,57.9673721 40.7771164,57.1957672 C40.082672,56.4241623 39.0961199,56.0383598 37.8174603,56.0383598 C35.1719577,56.0383598 33.8492063,57.537478 33.8492063,60.5357143 C33.8492063,62.1230159 34.2239859,63.2638889 34.973545,63.9583333 C35.7231041,64.6527778 36.6710758,65 37.8174603,65 Z"></path>
            </g>
        </g>
    </g>
</svg>